<svg height="511pt" viewBox="-49 1 511 511.99998" width="511pt" xmlns="http://www.w3.org/2000/svg"><path d="m368.992188 0h-323.222657c-25 0-45.269531 20.269531-45.269531 45.269531v421.460938c0 25 20.269531 45.269531 45.269531 45.269531h323.222657c25.003906 0 45.273437-20.269531 45.273437-45.269531v-421.460938c0-25-20.269531-45.269531-45.273437-45.269531zm0 0" fill="#41476b"/><path d="m45.769531 172.34375c-2.257812 0-4.097656-1.839844-4.097656-4.101562v-122.972657c0-2.257812 1.839844-4.097656 4.097656-4.097656h323.222657c2.261718 0 4.101562 1.839844 4.101562 4.097656v122.972657c0 2.261718-1.839844 4.101562-4.101562 4.101562zm0 0" fill="#94dc7e"/><path d="m72.574219 168.242188v-122.972657c0-2.257812 1.839843-4.097656 4.101562-4.097656h-30.90625c-2.257812 0-4.097656 1.839844-4.097656 4.097656v122.972657c0 2.261718 1.839844 4.101562 4.097656 4.101562h30.90625c-2.261719 0-4.101562-1.839844-4.101562-4.101562zm0 0" fill="#80c56e"/><g fill="#3a484a"><path d="m132.730469 117.632812c-4.265625 0-7.726563-3.460937-7.726563-7.726562v-13.511719c0-4.265625 3.460938-7.726562 7.726563-7.726562s7.726562 3.460937 7.726562 7.726562v13.511719c0 4.265625-3.460937 7.726562-7.726562 7.726562zm0 0"/><path d="m282.035156 117.632812c-4.269531 0-7.726562-3.460937-7.726562-7.726562v-13.511719c0-4.265625 3.457031-7.726562 7.726562-7.726562 4.265625 0 7.726563 3.460937 7.726563 7.726562v13.511719c0 4.265625-3.460938 7.726562-7.726563 7.726562zm0 0"/><path d="m207.382812 124.84375c-9.410156 0-18.246093-3.933594-24.242187-10.792969-2.808594-3.210937-2.480469-8.09375.730469-10.902343 3.214844-2.808594 8.09375-2.480469 10.902344.734374 3.0625 3.5 7.65625 5.507813 12.609374 5.507813 4.949219 0 9.546876-2.007813 12.609376-5.507813 2.804687-3.214843 7.6875-3.542968 10.902343-.734374 3.210938 2.808593 3.539063 7.691406.730469 10.902343-5.996094 6.859375-14.832031 10.792969-24.242188 10.792969zm0 0"/></g><path d="m169.828125 204.347656h-107.910156c-10.871094 0-19.6875 8.816406-19.6875 19.691406v82.074219c0 10.875 8.816406 19.691407 19.6875 19.691407h107.910156c10.875 0 19.691406-8.816407 19.691406-19.691407v-82.074219c-.003906-10.875-8.816406-19.691406-19.691406-19.691406zm0 0" fill="#94d9fd"/><path d="m73.136719 306.113281v-82.078125c0-10.871094 8.816406-19.6875 19.6875-19.6875h-30.90625c-10.871094 0-19.6875 8.816406-19.6875 19.6875v82.078125c0 10.875 8.816406 19.6875 19.6875 19.6875h30.90625c-10.871094 0-19.6875-8.8125-19.6875-19.6875zm0 0" fill="#5dc8eb"/><path d="m106.535156 292.828125v-18.503906h-18.5c-4.152344 0-6.917968-3.628907-6.917968-9.160157 0-5.191406 2.769531-9.339843 6.917968-9.339843h18.5v-18.328125c0-3.632813 4.152344-7.089844 9.339844-7.089844 5.53125 0 9.164062 3.457031 9.164062 7.089844v18.328125h18.328126c3.632812 0 7.261718 4.148437 7.261718 9.339843 0 5.53125-3.632812 9.160157-7.261718 9.160157h-18.328126v18.503906c0 4.152344-3.632812 6.917969-9.164062 6.917969-5.1875 0-9.339844-2.769532-9.339844-6.917969zm0 0" fill="#3a484a"/><path d="m352.84375 204.347656h-107.910156c-10.871094 0-19.6875 8.816406-19.6875 19.691406v82.074219c0 10.875 8.816406 19.691407 19.6875 19.691407h107.910156c10.875 0 19.691406-8.816407 19.691406-19.691407v-82.074219c0-10.875-8.816406-19.691406-19.691406-19.691406zm0 0" fill="#fedd60"/><path d="m256.152344 306.113281v-82.078125c0-10.871094 8.816406-19.6875 19.6875-19.6875h-30.902344c-10.875 0-19.691406 8.816406-19.691406 19.6875v82.078125c0 10.875 8.816406 19.6875 19.691406 19.6875h30.902344c-10.871094 0-19.6875-8.8125-19.6875-19.6875zm0 0" fill="#fecc2e"/><path d="m311.914062 291.125-13.082031-13.082031-13.082031 13.085937c-2.9375 2.933594-7.460938 2.320313-11.371094-1.589844-3.667968-3.667968-4.648437-8.558593-1.714844-11.496093l13.085938-13.082031-12.960938-12.960938c-2.566406-2.566406-2.078124-7.945312 1.589844-11.613281 3.910156-3.914063 8.925782-4.035157 11.492188-1.46875l12.960937 12.960937 12.960938-12.960937c2.566406-2.566407 8.070312-2.199219 11.738281 1.46875 3.910156 3.910156 3.914062 9.046875 1.34375 11.613281l-12.960938 12.960938 13.082032 13.082031c2.9375 2.9375 2.324218 7.460937-1.589844 11.371093-3.667969 3.667969-8.558594 4.648438-11.492188 1.710938zm0 0" fill="#3a484a"/><path d="m169.828125 361.542969h-107.910156c-10.871094 0-19.6875 8.816406-19.6875 19.691406v82.074219c0 10.875 8.816406 19.691406 19.6875 19.691406h107.910156c10.875 0 19.691406-8.816406 19.691406-19.691406v-82.074219c-.003906-10.875-8.816406-19.691406-19.691406-19.691406zm0 0" fill="#fd747f"/><path d="m73.136719 463.308594v-82.078125c0-10.871094 8.816406-19.6875 19.6875-19.6875h-30.90625c-10.871094 0-19.6875 8.816406-19.6875 19.6875v82.078125c0 10.875 8.816406 19.6875 19.6875 19.6875h30.90625c-10.871094 0-19.6875-8.8125-19.6875-19.6875zm0 0" fill="#f25759"/><path d="m93.222656 413.019531h44.957032c3.632812 0 7.265624 4.152344 7.265624 9.339844 0 5.53125-3.632812 9.160156-7.265624 9.160156h-44.957032c-4.152344 0-6.917968-3.628906-6.917968-9.160156 0-5.1875 2.765624-9.339844 6.917968-9.339844zm0 0" fill="#3a484a"/><path d="m352.84375 361.542969h-107.910156c-10.871094 0-19.6875 8.816406-19.6875 19.691406v82.074219c0 10.875 8.816406 19.691406 19.6875 19.691406h107.910156c10.875 0 19.691406-8.816406 19.691406-19.691406v-82.074219c0-10.875-8.816406-19.691406-19.691406-19.691406zm0 0" fill="#94dc7e"/><path d="m256.152344 463.308594v-82.078125c0-10.871094 8.816406-19.6875 19.6875-19.6875h-30.902344c-10.875 0-19.691406 8.816406-19.691406 19.6875v82.078125c0 10.875 8.816406 19.6875 19.691406 19.6875h30.902344c-10.871094 0-19.6875-8.8125-19.6875-19.6875zm0 0" fill="#80c56e"/><path d="m276.410156 395.46875h44.613282c3.632812 0 7.261718 4.152344 7.261718 9.335938 0 5.535156-3.628906 9.167968-7.261718 9.167968h-44.613282c-4.148437 0-6.914062-3.632812-6.914062-9.167968 0-5.1875 2.765625-9.335938 6.914062-9.335938zm0 35.101562h44.613282c3.632812 0 7.261718 4.152344 7.261718 9.335938 0 5.535156-3.628906 9.167969-7.261718 9.167969h-44.613282c-4.148437 0-6.914062-3.632813-6.914062-9.167969 0-5.183594 2.765625-9.335938 6.914062-9.335938zm0 0" fill="#3a484a"/></svg>