<!--?xml version="1.0" standalone="no"?--><svg version="1.0" xmlns="http://www.w3.org/2000/svg" width="300.000000pt" height="300.000000pt" viewBox="0 0 300.000000 300.000000" preserveAspectRatio="xMidYMid meet">
<metadata>
  <rdf:rdf xmlns:rdf="http://www.w3.org/1999/02/22-rdf-syntax-ns#" xmlns:rdfs="http://www.w3.org/2000/01/rdf-schema#" xmlns:dc="http://purl.org/dc/elements/1.1/">
    <rdf:description dc:title="meta-title" dc:publisher="Hiox" dc:date="2015-03-14" dc:format="image/svg+xml" dc:language="en">
      <dc:creator>
        <rdf:bag>
          <rdf:li>svgimages.com</rdf:li>
        </rdf:bag>
      </dc:creator>
    </rdf:description>
  </rdf:rdf>
</metadata>
<g transform="translate(0.000000,300.000000) scale(0.100000,-0.100000)" fill="#252122" stroke="none">
<path d="M2235 2841 c-11 -5 -56 -39 -100 -76 -115 -96 -111 -95 -213 -34
-103 62 -184 99 -218 99 -35 0 -81 -26 -89 -50 -22 -69 9 -206 81 -355 45 -94
72 -121 134 -134 66 -14 338 -14 378 0 46 16 84 80 147 248 22 60 31 197 16
244 -7 20 -22 44 -34 52 -23 16 -70 19 -102 6z" id="node1" class="node"></path>
<path d="M1683 2158 c-33 -35 -68 -76 -79 -93 -10 -16 -21 -32 -24 -35 -19
-16 -105 -160 -148 -245 -80 -161 -118 -293 -103 -357 l9 -38 -137 0 c-75 0
-176 -7 -226 -15 -121 -20 -122 -20 -128 15 l-6 30 -360 0 c-334 0 -360 -1
-365 -17 -33 -107 -33 -1007 -1 -1151 l5 -22 363 2 362 3 3 40 c1 22 5 59 8
83 l5 42 63 0 c100 0 163 -24 358 -134 57 -33 222 -90 306 -106 89 -18 382 -8
447 14 140 49 264 107 273 128 2 4 9 8 16 8 21 0 185 150 362 332 208 213 229
247 222 366 -4 61 -10 86 -30 118 -46 72 -123 123 -211 139 -42 8 -41 2 -18
90 18 70 13 176 -13 257 -48 151 -155 352 -268 500 -76 101 -86 107 -145 95
-73 -14 -321 -20 -367 -8 -108 27 -107 27 -173 -41z m375 -349 c3 -27 36 -46
48 -28 3 5 25 9 50 9 l44 0 0 -75 0 -75 -42 0 c-29 0 -54 8 -79 26 -63 44
-149 32 -149 -21 0 -27 40 -48 123 -66 96 -21 157 -80 157 -153 0 -69 -40
-110 -132 -140 -10 -3 -18 -15 -18 -26 0 -17 -6 -20 -45 -20 -41 0 -45 2 -45
24 0 27 -24 53 -35 36 -3 -5 -26 -10 -51 -10 l-44 0 0 75 0 75 43 0 c30 0 54
-9 86 -30 52 -36 102 -39 131 -10 16 16 18 25 10 40 -11 21 -59 50 -83 50 -33
0 -119 33 -146 56 -64 53 -62 158 3 208 19 14 41 26 48 26 20 0 38 21 38 43 0
15 7 18 43 15 37 -3 42 -6 45 -29z m-558 -574 c205 -46 376 -120 505 -218 79
-61 105 -98 108 -155 1 -47 -30 -99 -75 -125 -33 -19 -123 -23 -172 -7 -17 5
-88 27 -157 50 -69 22 -130 40 -136 40 -11 0 -50 -106 -42 -114 12 -13 207
-76 294 -96 206 -48 319 -6 401 150 28 54 142 175 287 308 65 59 69 62 120 62
34 0 62 -7 80 -19 63 -41 85 -126 50 -191 -10 -18 -110 -126 -223 -242 -204
-209 -285 -276 -387 -319 -26 -11 -57 -25 -68 -30 -51 -25 -160 -42 -288 -46
-116 -3 -151 -1 -222 17 -107 27 -190 59 -262 103 -144 86 -231 117 -352 124
l-94 6 6 161 c3 89 2 244 -3 346 -4 102 -7 186 -5 188 1 1 44 9 96 17 127 19
435 14 539 -10z" id="node2" class="node"></path>
</g>
<g transform="translate(0.000000,300.000000) scale(0.100000,-0.100000)" fill="#FFFFFF" stroke="none">

<path d="M1970 1823 c0 -22 -18 -43 -38 -43 -7 0 -29 -12 -48 -26 -65 -50 -67
-155 -3 -208 27 -23 113 -56 146 -56 24 0 72 -29 83 -50 8 -15 6 -24 -10 -40
-29 -29 -79 -26 -131 10 -32 21 -56 30 -86 30 l-43 0 0 -75 0 -75 44 0 c25 0
48 5 51 10 11 17 35 -9 35 -36 0 -22 4 -24 45 -24 39 0 45 3 45 20 0 11 8 23
18 26 92 30 132 71 132 140 0 73 -61 132 -157 153 -83 18 -123 39 -123 66 0
53 86 65 149 21 25 -18 50 -26 79 -26 l42 0 0 75 0 75 -44 0 c-25 0 -47 -4
-50 -9 -12 -18 -45 1 -48 28 -3 23 -8 26 -45 29 -36 3 -43 0 -43 -15z" id="node4" class="node"></path>
<path d="M961 1245 c-52 -8 -95 -16 -96 -17 -2 -2 1 -86 5 -188 5 -102 6 -257
3 -346 l-6 -161 94 -6 c121 -7 208 -38 352 -124 72 -44 155 -76 262 -103 71
-18 106 -20 222 -17 128 4 237 21 288 46 11 5 42 19 68 30 102 43 183 110 387
319 113 116 213 224 223 242 35 65 13 150 -50 191 -18 12 -46 19 -80 19 -51 0
-55 -3 -120 -62 -145 -133 -259 -254 -287 -308 -82 -156 -195 -198 -401 -150
-87 20 -282 83 -294 96 -8 8 31 114 42 114 6 0 67 -18 136 -40 69 -23 140 -45
157 -50 49 -16 139 -12 172 7 45 26 76 78 75 125 -3 57 -29 94 -108 155 -129
98 -300 172 -505 218 -104 24 -412 29 -539 10z" id="node5" class="node"></path>
</g>
</svg>