<svg height="512pt" viewBox="-59 0 512 512.00082" width="512pt" xmlns="http://www.w3.org/2000/svg"><path d="m46.464844 0h302.011718c25.660157 0 46.464844 20.800781 46.464844 46.464844v418.171875c0 25.660156-20.804687 46.460937-46.464844 46.460937h-302.011718c-25.664063 0-46.464844-20.800781-46.464844-46.460937v-418.171875c0-25.664063 20.800781-46.464844 46.464844-46.464844zm0 0" fill="#2c2f53"/><path d="m46.464844 0h255.550781c25.660156 0 46.460937 20.800781 46.460937 46.464844v418.171875c0 25.660156-20.800781 46.460937-46.460937 46.460937h-255.550781c-25.664063 0-46.464844-20.800781-46.464844-46.460937v-418.171875c0-25.664063 20.800781-46.464844 46.464844-46.464844zm0 0" fill="#4c4f6e"/><g fill="#2c2f53"><path d="m116.160156 325.246094c0 12.828125-10.402344 23.230468-23.234375 23.230468-12.828125 0-23.230469-10.402343-23.230469-23.230468 0-12.832032 10.402344-23.234375 23.230469-23.234375 12.832031 0 23.234375 10.402343 23.234375 23.234375zm0 0"/><path d="m116.160156 394.941406c0 12.828125-10.402344 23.230469-23.234375 23.230469-12.828125 0-23.230469-10.402344-23.230469-23.230469 0-12.832031 10.402344-23.234375 23.230469-23.234375 12.832031 0 23.234375 10.402344 23.234375 23.234375zm0 0"/><path d="m116.160156 464.636719c0 12.828125-10.402344 23.230469-23.234375 23.230469-12.828125 0-23.230469-10.402344-23.230469-23.230469 0-12.832031 10.402344-23.234375 23.230469-23.234375 12.832031 0 23.234375 10.402344 23.234375 23.234375zm0 0"/><path d="m209.085938 325.246094c0 12.828125-10.402344 23.230468-23.230469 23.230468-12.832031 0-23.234375-10.402343-23.234375-23.230468 0-12.832032 10.402344-23.234375 23.234375-23.234375 12.828125 0 23.230469 10.402343 23.230469 23.234375zm0 0"/><path d="m209.085938 394.941406c0 12.828125-10.402344 23.230469-23.230469 23.230469-12.832031 0-23.234375-10.402344-23.234375-23.230469 0-12.832031 10.402344-23.234375 23.234375-23.234375 12.828125 0 23.230469 10.402344 23.230469 23.234375zm0 0"/><path d="m209.085938 464.636719c0 12.828125-10.402344 23.230469-23.230469 23.230469-12.832031 0-23.234375-10.402344-23.234375-23.230469 0-12.832031 10.402344-23.234375 23.234375-23.234375 12.828125 0 23.230469 10.402344 23.230469 23.234375zm0 0"/><path d="m302.015625 325.246094c0 12.828125-10.402344 23.230468-23.234375 23.230468s-23.230469-10.402343-23.230469-23.230468c0-12.832032 10.398438-23.234375 23.230469-23.234375s23.234375 10.402343 23.234375 23.234375zm0 0"/></g><path d="m302.015625 394.941406c0 12.828125-10.402344 23.230469-23.234375 23.230469s-23.230469-10.402344-23.230469-23.230469c0-12.832031 10.398438-23.234375 23.230469-23.234375s23.234375 10.402344 23.234375 23.234375zm0 0" fill="#4c4f6e"/><path d="m302.015625 464.636719c0 12.828125-10.402344 23.230469-23.234375 23.230469s-23.230469-10.402344-23.230469-23.230469c0-12.832031 10.398438-23.234375 23.230469-23.234375s23.234375 10.402344 23.234375 23.234375zm0 0" fill="#4c4f6e"/><path d="m278.78125 371.707031c12.832031 0 23.234375 10.402344 23.234375 23.234375v69.695313c0 12.828125-10.402344 23.230469-23.234375 23.230469-12.828125 0-23.230469-10.398438-23.230469-23.230469v-69.695313c0-12.832031 10.398438-23.234375 23.230469-23.234375zm0 0" fill="#2c2f53"/><path d="m360.09375 205.039062c-6.414062 0-11.617188 5.203126-11.617188 11.617188v248.566406l-.003906.027344v.207031l-.003906.019531v.144532l-.003906.046875v.164062l-.003906.015625v.125l-.003907.027344v.070312l-.003906.046876v.023437l-.003906.136719v.070312l-.003907.023438v.074218l-.003906.046876v.019531l-.003906.066406v.003906l-.003906.074219v.066406l-.003906.019532v.074218l-.003907.046875v.023438l-.003906.054687v.015625l-.003906.066407v.015624l-.003907.054688v.019531l-.003906.054688v.019531l-.003906.050781v.019531l-.003906.054688v.015625l-.007813.140625-.003906.007812v.0625l-.003906.015626-.003907.054687v.019531l-.003906.058594v.007812l-.007812.144532-.003906.003906-.003907.066406v.015625l-.003906.054688v.015625l-.003906.058594v.011718l-.011719.144532v.003906l-.007812.066406v.011719l-.003907.058593v.011719l-.007812.0625v.007813c-.003907.074218-.011719.148437-.015625.21875v.003906l-.007813.066406v.011719l-.003906.058594-.003906.011719-.003907.066406v.003906l-.015624.144531-.003907.070313v.007812l-.007812.066406v.007813l-.007813.066406v.003907l-.015625.144531-.007812.070312v.007813l-.003907.0625-.003906.011718-.003906.0625-.003906.007813c-.007813.070313-.015625.144531-.023438.214844v.007812l-.007812.0625v.007813l-.007813.066406v.003906c-.011719.097656-.023437.195313-.035156.289063v.003906c-1.011719 8.378906-4.296875 16.320313-9.5 22.964844-3.949219 5.054687-3.054687 12.355469 1.996094 16.304687 5.054687 3.953125 12.355469 3.058594 16.308593-1.996094 9.550782-12.265624 14.746094-27.359374 14.765626-42.902343v-247.980469c-.003907-6.414062-5.203126-11.617188-11.617188-11.617188zm0 0" fill="#1e2147"/><path d="m312.039062 219.832031s82.902344-17.304687 82.902344-80.441406v-92.925781c0-25.664063-20.804687-46.464844-46.464844-46.464844h-92.925781v209.085938zm0 0" fill="#e80035"/><path d="m356.839844 15.636719c-6.421875.003906-11.621094 5.214843-11.617188 11.632812.003906 1.300781.222656 2.59375.652344 3.824219l.035156.101562.003906.015626.015626.042968.007812.015625.035156.105469v.003906c.027344.074219.050782.148438.078125.222656v.003907l.015625.050781.003906.007812c.039063.109376.074219.222657.109376.335938l.003906.003906c.851562 2.609375 1.472656 5.289063 1.851562 8.011719l.007813.058594v.003906l.007812.058594v.003906c.011719.078125.019531.160156.03125.238281v.003906l.007813.054688v.007812l.007812.054688v.007812c.015625.097657.027344.199219.039063.296876v.003906l.007812.058594v.007812c.011719.097656.023438.195312.035157.296875v.003906l.007812.054688v.011719l.007812.054687v.003906c.007813.078125.015626.15625.023438.238281v.007813l.007812.050781v.011719l.007813.054687v.003907c.007813.078125.015625.15625.023437.234375v.011718l.003907.046876.003906.023437.003906.042969v.019531l.003907.046875.003906.015625.011718.160156.003907.015625.003906.042969v.023437l.003906.042969.003907.027344.003906.039063v.027343l.003906.039063.003906.015625.003906.089843.003907.023438.003906.039062v.027344l.003906.039063.003907.03125v.035156l.003906.03125.003906.039063v.023437l.007812.074219v.03125l.003907.039062.003906.03125v.035156l.003906.03125.003907.035157v.03125l.003906.039062v.027344l.003906.066406.003906.035157v.03125l.003906.039062.003907.03125v.039062l.003906.03125v.039063l.003906.03125v.042969l.003907.023437.003906.066407v.03125l.003906.035156v.035156l.003906.035156v.03125l.003906.039063v.066406l.003907.035156.003906.0625v.027344l.003906.042969v.066406l.003907.035156v.035156l.003906.03125v.066407l.003906.066406v.023437l.003906.046876v.070312l.003906.03125v.070312l.003907.039063v.078125l.003906.03125v.082031l.003906.042969v.070312l.003907.027344v.070313l.003906.046875v.160156l.003906.027344v.140625l.003906.050781v.183594l.003906.042968v140.605469c0 6.417969 5.203126 11.617188 11.617188 11.617188s11.617188-5.199219 11.617188-11.617188v-139.992187c.003906-7.851563-1.316407-15.644532-3.910157-23.050782-1.632812-4.660156-6.027343-7.777343-10.960937-7.777343zm0 0" fill="#cb0025"/><path d="m383.324219 127.855469c-6.410157 0-11.605469 5.191406-11.617188 11.597656-.015625 12.929687-5.304687 24.007813-16.171875 33.863281-4.753906 4.308594-5.113281 11.652344-.800781 16.40625 4.308594 4.75 11.652344 5.109375 16.40625.800782 7.25-6.417969 13.1875-14.183594 17.476563-22.863282l.003906-.003906.070312-.148438v-.003906c.03125-.0625.0625-.128906.09375-.191406l.007813-.015625.058593-.128906.011719-.023438.015625-.035156.011719-.023437.03125-.066407.007813-.019531.019531-.042969.007812-.015625.058594-.125.011719-.027344.019531-.035156.011719-.027344.027344-.0625.011718-.023437.015625-.035156.011719-.03125.023438-.050781.03125-.0625.015624-.035157.011719-.027343.023438-.050782.03125-.070312.011719-.027344.019531-.042969.015625-.027343.019531-.050782.011719-.027344.019531-.035156.011719-.027344.023437-.058593.011719-.023438.015625-.039062.015625-.027344.019531-.042969.03125-.078125.011719-.027343.023438-.046876.003906-.015624.027344-.0625.007812-.015626.023438-.054687.007812-.015625.027344-.0625.007812-.011719.023438-.054687.003906-.015625.027344-.0625.003906-.003907.027344-.066406.007812-.015625.023438-.058593.003906-.007813.03125-.070313v-.003906l.027344-.0625.003906-.015625.058594-.132812.003906-.011719.0625-.140625.027344-.070313.003906-.007812.027344-.066406.003906-.007813.027344-.0625.003906-.011719c.050781-.121093.097656-.238281.148438-.363281 3.1875-7.84375 4.804687-16.234375 4.757812-24.703125-.015625-6.398437-5.199219-11.578125-11.597656-11.585937zm0 0" fill="#9b002f"/><path d="m348.476562 174.425781c.109376 21.871094-15.128906 40.828125-36.511718 45.421875-28.6875 6.078125-64.617188 12.46875-137.726563 12.46875s-109.039062-6.390625-137.726562-12.46875c-21.382813-4.59375-36.617188-23.550781-36.511719-45.421875v-127.960937c0-25.664063 20.800781-46.464844 46.464844-46.464844h255.550781c25.660156 0 46.460937 20.800781 46.460937 46.464844zm0 0" fill="#fa4659"/><path d="m338.054688 208.492188c-2.609376-.003907-5.144532.878906-7.191407 2.5-.644531.507812-1.296875 1-1.96875 1.472656h-.003906c-.046875.035156-.097656.070312-.144531.105468h-.003906l-.042969.03125-.011719.007813-.042969.03125-.007812.003906-.082031.058594-.011719.007813-.039063.027343-.019531.011719-.035156.027344-.023438.015625-.054687.035156-.03125.023437-.03125.019532-.027344.019531-.03125.023437-.03125.019532-.039062.027344-.042969.027343-.027344.019531-.03125.023438-.027344.015625-.039062.027344-.019531.011719-.058594.039062-.019532.015625-.042968.027344-.019532.011719-.050781.035156-.070312.046875-.019531.011719-.042969.03125-.019531.011718-.050782.03125-.007812.007813-.066406.042969-.003907.003906-.058593.035156-.015626.011719-.050781.035156-.007812.003906-.066407.042969h-.003906l-.128906.085938h-.007812l-.128907.085937-.007812.003906c-4.421875 2.808594-9.296875 4.839844-14.410157 5.996094l-.007812.003906-.074219.015625h-.007812c-.050781.011719-.105469.023438-.15625.035156l-.011719.003907-.070312.015625h-.011719c-.050781.011718-.101563.023437-.152344.035156l-.175781.035156c-28.683594 6.078125-64.613282 12.46875-137.722656 12.46875-73.109376 0-109.039063-6.390625-137.726563-12.46875l-.066406-.011718-.023438-.003907-.042969-.011719-.027343-.003906-.039063-.007812-.03125-.007813-.070312-.015625-.03125-.007812-.035156-.007813-.03125-.007812-.035157-.007813-.03125-.003906-.035156-.007812-.027344-.007813-.148437-.035156-.015625-.003907-.039063-.007812-.027344-.003906-.039062-.011719-.023438-.003906-.042968-.011719-.023438-.003906-.042968-.011719-.023438-.003906-.039062-.007813-.027344-.007812-.058594-.011719-.046875-.011719-.007813-.003906c-.058593-.011719-.117187-.027344-.171874-.039062l-.007813-.003907-.050781-.011719-.015625-.003906-.042969-.011718-.023438-.003907-.039062-.011719-.023438-.003906-.042968-.011718-.019532-.003907-.0625-.015625-.050781-.011718-.007812-.003907-.054688-.011719-.003906-.003906-.175781-.042968-.007813-.003907-.042969-.011719-.023437-.003906-.042969-.011718-.0625-.015626-.019531-.003906-.0625-.015625-.058594-.019531-.050781-.011719-.007812-.003906c-.097657-.023437-.195313-.050781-.292969-.078125l-.011719-.003906-.050781-.011719-.011719-.003906-.046875-.011719-.019531-.007812-.109375-.027344-.015625-.007813-.046875-.011719-.011719-.003906-.050781-.011718-.003907-.003907c-.058593-.015625-.113281-.03125-.171874-.046875l-.007813-.003906-.046875-.011719-.019531-.007812-.0625-.015625-.058594-.019532-.050781-.011718-.015625-.007813-.042969-.011719-.019531-.003906-.046875-.015625h-.003906c-.058594-.019531-.117188-.035156-.175782-.050781l-.003906-.003906-.046875-.011719-.015625-.007813-.042969-.011718-.019531-.003906-.042969-.015626-.019531-.003906-.039062-.011718-.027344-.007813-.039063-.011719-.019531-.007812-.042969-.011719-.019531-.007813-.042969-.011718-.007812-.003906-.164063-.050782-.011718-.003906-.050782-.015625-.011718-.003906-.042969-.011719-.023438-.007812-.039062-.011719-.023438-.007813-.039062-.011718-.023438-.007813-.039062-.011719-.023438-.007812-.039062-.015625-.023438-.007813-.039062-.011718-.011719-.003907-.148438-.046875-.023437-.007812-.039063-.011719-.023437-.007813-.035156-.015624-.03125-.007813-.03125-.011719-.03125-.007812-.09375-.035156-.03125-.007813-.03125-.011719-.035157-.011718-.027343-.011719-.058594-.019531h-.003906l-.0625-.019532-.027344-.011718-.035156-.011719-.027344-.007813-.035156-.011718-.027344-.011719-.039063-.011719-.023437-.011719-.039063-.011719-.023437-.007812-.042969-.015625-.019531-.007813-.050781-.015624-.011719-.003907-.054687-.019531-.011719-.003906-.125-.046875-.011719-.003907-.050781-.019531-.019531-.003906-.046876-.019531-.015624-.003906-.046876-.015626-.019531-.007812-.046875-.019531-.015625-.003907-.046875-.019531-.015625-.003906-.054687-.019531-.007813-.003906-.0625-.023438-.128906-.046875-.007813-.003906-.054687-.023438h-.011719l-.054687-.023437-.011719-.003906-.050781-.019532-.011719-.003906-.054688-.019531-.007812-.003907-.058594-.023437h-.003906c-3.273438-1.253906-6.390625-2.882813-9.289062-4.855469-5.308594-3.601562-12.53125-2.21875-16.132813 3.089844s-2.21875 12.53125 3.089844 16.136719c7.398437 5.027343 15.710937 8.566406 24.46875 10.410156 29.625 6.277344 67.511719 12.972656 142.539062 12.972656 75.027344 0 112.917969-6.699219 142.542969-12.972656 10.390625-2.210937 20.136719-6.78125 28.484375-13.355469 5.03125-3.976562 5.890625-11.28125 1.914063-16.316406-2.207032-2.789062-5.566407-4.417969-9.125-4.414062zm0 0" fill="#2c2f53"/><path d="m69.695312 46.464844h209.085938c12.832031 0 23.234375 10.398437 23.234375 23.230468v69.695313c0 12.832031-10.402344 23.230469-23.234375 23.230469h-209.085938c-12.832031 0-23.230468-10.398438-23.230468-23.230469v-69.695313c0-12.832031 10.398437-23.230468 23.230468-23.230468zm0 0" fill="#74d9d0"/><path d="m243.933594 139.390625c-6.414063 0-11.613282-5.203125-11.613282-11.617187 0-3.078126 1.222657-6.035157 3.402344-8.210938l23.230469-23.230469c4.535156-4.539062 11.886719-4.542969 16.425781-.011719 4.539063 4.535157 4.542969 11.890626.007813 16.425782 0 .003906-.003907.007812-.007813.011718l-23.230468 23.230469c-2.175782 2.179688-5.132813 3.40625-8.214844 3.402344zm0 0" fill="#2c2f53"/><path d="m267.164062 139.390625c-3.078124.003906-6.035156-1.222656-8.210937-3.402344l-23.230469-23.230469c-4.535156-4.539062-4.53125-11.894531.003906-16.425781 4.535157-4.53125 11.886719-4.53125 16.417969 0l23.234375 23.230469c4.535156 4.535156 4.535156 11.890625-.003906 16.425781-2.175781 2.179688-5.128906 3.402344-8.210938 3.402344zm0 0" fill="#2c2f53"/><path d="m313.59375 56.273438c-.199219 0-.402344.007812-.605469.015624-6.40625.332032-11.332031 5.789063-11.003906 12.195313 0 .054687.003906.109375.007813.160156v.070313c.015624.296875.019531.59375.023437.894531v63.925781c0 .214844.003906.425782.015625.640625-.011719.210938-.015625.421875-.015625.636719v4.804688l-.003906.03125v.214843l-.003907.015625v.152344l-.003906.019531v.117188l-.003906.011719v.097656l-.003906.015625v.074219l-.003906.023437v.089844l-.003907.019531v.054688l-.003906.019531v.050781l-.003906.027344v.050781l-.003907.023437v.046876l-.003906.027343v.035157l-.003906.015624v.035157l-.003906.023437v.046875l-.003906.03125v.035157l-.003907.011718v.035156l-.003906.027344v.011719l-.003906.023437v.046876l-.003907.03125v.007812l-.003906.027344v.039062l-.003906.007813v.035156l-.003906.027344v.011719l-.003906.027343v.007813l-.003907.027344v.035156l-.003906.011718v.027344l-.003906.007813v.039062l-.003907.027344v.007813l-.003906.027343v.011719l-.003906.027344v.007812l-.003906.027344v.011719l-.003906.023437v.011719l-.003907.027344v.007812l-.003906.03125v.003907l-.003906.03125v.007812l-.003907.027344v.007812l-.003906.027344v.011719l-.003906.027343v.007813l-.003906.027344v.007812l-.003906.03125v.007813l-.003907.027344v.007812l-.003906.03125v.003906l-.003906.03125v.003906l-.003907.035157v.003906l-.003906.027344v.007812l-.003906.03125v.003907l-.003906.03125-.003906.007812-.003907.03125v.003906l-.003906.03125v.007813l-.003906.027343v.003907l-.003907.035156v.003906l-.003906.03125v.003907l-.003906.03125-.003906.007812-.003906.03125v.003906l-.003907.03125v.007813l-.003906.027343-.003906.007813-.003907.027344v.007812l-.003906.03125-.003906.035157v.003906l-.003906.03125v.003906l-.007813.03125v.007812l-.003906.03125v.003907l-.003906.03125-.003907.007812-.003906.03125v.003907l-.003906.03125v.003906l-.011719.066406v.007812l-.003906.03125-.007813.035157v.003906l-.011718.066406v.003907l-.011719.066406v.007812l-.011719.066406v.003907l-.011718.066406v.007813l-.011719.066406-.003907.003906-.007812.066406-.003906.007813c-.027344.164062-.058594.324219-.09375.488281v.003906l-.007813.050782-.007812.027343-.019531.097657-.007813.023437v.015625l-.015625.0625v.003906l-.007812.03125v.007813l-.003907.019531-.003906.015625-.003906.023437-.003907.011719-.003906.019531-.003906.015626-.003906.019531-.007813.03125-.003906.023437-.003906.007813-.003907.023437-.003906.015625-.003906.023438-.003906.007812-.003906.027344-.003907.007813-.003906.027343-.003906.007813-.003907.027344-.011718.035156v.007812l-.007813.027344v.011719l-.011719.035156-.003906.023437-.003906.011719-.003906.023438-.003906.007812-.007813.027344v.007813l-.007813.027343v.007813l-.007812.027344v.007812l-.007812.027344v.003906l-.007813.03125-.003906.003906-.007813.03125-.007812.035156v.003907l-.035156.136719v.003906c-.292969 1.117187-.664063 2.214844-1.121094 3.277344-2.507813 5.902343.246094 12.722656 6.152344 15.230468 5.898437 2.503906 12.707031-.242187 15.222656-6.132812 2.464844-5.761719 3.730468-11.964844 3.71875-18.230469v-4.578125c0-.214844-.003906-.425781-.015625-.636719.011719-.210937.015625-.425781.015625-.640625v-63.839844c0-.804687-.019532-1.605468-.058594-2.398437-.320312-6.171875-5.414062-11.015625-11.59375-11.023437zm0 0" fill="#fdb8bf"/><path d="m34.882812 56.273438c-6.179687.007812-11.273437 4.851562-11.589843 11.023437-.039063.792969-.0625 1.59375-.0625 2.398437v63.839844c0 .214844.007812.425782.019531.636719-.011719.214844-.019531.425781-.019531.640625v4.578125c-.007813 6.265625 1.257812 12.46875 3.71875 18.230469 2.515625 5.898437 9.339843 8.644531 15.242187 6.128906 5.898438-2.515625 8.644532-9.332031 6.136719-15.230469-.457031-1.0625-.832031-2.15625-1.121094-3.273437v-.003906l-.035156-.136719v-.003907l-.011719-.035156-.007812-.03125v-.003906l-.007813-.03125v-.003906l-.007812-.027344v-.011719l-.007813-.027343-.003906-.003907-.003906-.03125-.003906-.003906-.007813-.027344v-.007812l-.007813-.027344v-.011719l-.007812-.023437v-.011719l-.011719-.035156-.003906-.023438-.003906-.007812-.003907-.027344-.003906-.011719-.007812-.027343v-.003907l-.003906-.027343-.003907-.011719-.003906-.023438-.003906-.011719-.003907-.023437-.003906-.011719-.007812-.027344v-.007812l-.003906-.019531-.003907-.015625-.003906-.019532-.007813-.03125-.003906-.023437-.003906-.011719-.011719-.058594-.003906-.007812-.003906-.027344-.003907-.003906-.003906-.03125v-.003906l-.007812-.03125-.003906-.011719-.003907-.023437v-.003907l-.019531-.097656-.007812-.023437-.007813-.050782-.003906-.007812c-.03125-.160156-.0625-.324219-.089844-.484375l-.003906-.007813-.011719-.066406v-.007812l-.011719-.0625v-.007813l-.011719-.066406v-.003907l-.011718-.066406v-.007812l-.011719-.070313-.011719-.066406v-.007813l-.007812-.03125v-.003906l-.003906-.03125v-.003906l-.011719-.066406v-.007813l-.003907-.03125v-.003906l-.007812-.027344v-.007812l-.003906-.035157-.003906-.03125v-.007812l-.007813-.03125v-.003906l-.003906-.03125v-.003906l-.003907-.035157-.003906-.03125-.003906-.007812-.003906-.03125v-.003907l-.003906-.03125v-.007812l-.003907-.03125v-.003906l-.003906-.03125-.003906-.003906-.003907-.03125v-.003907l-.003906-.03125v-.007812l-.003906-.03125v-.003907l-.003906-.03125v-.007812l-.003906-.027344v-.007812l-.003907-.03125-.003906-.003906-.003906-.03125v-.003907l-.003907-.03125v-.007812l-.003906-.03125v-.003907l-.003906-.03125v-.003906l-.003906-.035156-.003906-.03125v-.007812l-.003907-.03125v-.007813l-.003906-.027344v-.007812l-.003906-.03125v-.003907l-.003907-.03125v-.007812l-.003906-.027344v-.007812l-.003906-.03125v-.003906l-.003906-.03125v-.007813l-.003906-.027344v-.011719l-.003907-.023437v-.011719l-.003906-.027344v-.007812l-.003906-.027344v-.007812l-.003907-.03125v-.007813l-.003906-.027343v-.007813l-.003906-.027344v-.011719l-.003906-.027343v-.007813l-.003906-.027344v-.039062l-.003907-.007812v-.039063l-.003906-.027344v-.007812l-.003906-.027344v-.007813l-.003907-.03125v-.042968l-.003906-.027344v-.011719l-.003906-.027343v-.035157l-.003906-.011719v-.035156l-.003906-.027344v-.011718l-.003907-.023438v-.050781l-.003906-.027344v-.035156l-.003906-.011719v-.039062l-.003907-.023438v-.050781l-.003906-.023437v-.035157l-.003906-.011719v-.0625l-.003906-.015624v-.035157l-.003906-.023437v-.074219l-.003907-.015625v-.074219l-.003906-.023437v-.089844l-.003906-.023438v-.074218l-.003907-.015625v-.09375l-.003906-.015625v-.152344l-.003906-.019531v-.160157l-.003906-.027343v-4.917969c0-.214844-.003906-.429688-.015625-.640625.011719-.210937.015625-.421875.015625-.636719v-63.925781c0-.300781.007812-.597656.019531-.898437v-.003907l.003906-.027343v-.035157c.003907-.050781.003907-.105469.007813-.160156.328125-6.40625-4.597656-11.867187-11.003906-12.195313-.207032-.007812-.40625-.015624-.609376-.015624zm0 0" fill="#e80035"/><path d="m69.695312 278.78125h23.230469c12.832031 0 23.234375 10.402344 23.234375 23.230469 0 12.832031-10.402344 23.234375-23.234375 23.234375h-23.230469c-12.832031 0-23.230468-10.402344-23.230468-23.234375 0-12.828125 10.398437-23.230469 23.230468-23.230469zm0 0" fill="#cacad4"/><path d="m162.621094 278.78125h23.234375c12.828125 0 23.230469 10.402344 23.230469 23.230469 0 12.832031-10.398438 23.234375-23.230469 23.234375h-23.234375c-12.828125 0-23.230469-10.402344-23.230469-23.234375 0-12.828125 10.402344-23.230469 23.230469-23.230469zm0 0" fill="#cacad4"/><path d="m255.550781 278.78125h23.230469c12.832031 0 23.234375 10.402344 23.234375 23.230469 0 12.832031-10.402344 23.234375-23.234375 23.234375h-23.230469c-12.832031 0-23.234375-10.402344-23.234375-23.234375 0-12.828125 10.402344-23.230469 23.234375-23.230469zm0 0" fill="#cacad4"/><path d="m69.695312 348.476562h23.230469c12.832031 0 23.234375 10.402344 23.234375 23.230469 0 12.832031-10.402344 23.234375-23.234375 23.234375h-23.230469c-12.832031 0-23.230468-10.402344-23.230468-23.234375 0-12.828125 10.398437-23.230469 23.230468-23.230469zm0 0" fill="#cacad4"/><path d="m162.621094 348.476562h23.234375c12.828125 0 23.230469 10.402344 23.230469 23.230469 0 12.832031-10.398438 23.234375-23.230469 23.234375h-23.234375c-12.828125 0-23.230469-10.402344-23.230469-23.234375 0-12.828125 10.402344-23.230469 23.230469-23.230469zm0 0" fill="#cacad4"/><path d="m69.695312 418.171875h23.230469c12.832031 0 23.234375 10.402344 23.234375 23.230469 0 12.832031-10.402344 23.234375-23.234375 23.234375h-23.230469c-12.832031 0-23.230468-10.402344-23.230468-23.234375 0-12.828125 10.398437-23.230469 23.230468-23.230469zm0 0" fill="#cacad4"/><path d="m162.621094 418.171875h23.234375c12.828125 0 23.230469 10.402344 23.230469 23.230469 0 12.832031-10.398438 23.234375-23.230469 23.234375h-23.234375c-12.828125 0-23.230469-10.402344-23.230469-23.234375 0-12.828125 10.402344-23.230469 23.230469-23.230469zm0 0" fill="#cacad4"/><path d="m267.164062 348.476562c19.246094 0 34.847657 15.601563 34.847657 34.847657v46.464843c0 19.246094-15.601563 34.847657-34.847657 34.847657-19.242187 0-34.847656-15.601563-34.847656-34.847657v-46.464843c0-19.246094 15.605469-34.847657 34.847656-34.847657zm0 0" fill="#fa4659"/><path d="m69.691406 69.699219c4.457032-4.574219 4.359375-11.894531-.214844-16.351563-4.488281-4.371094-11.640624-4.371094-16.132812 0l-.074219-.078125c-.070312.070313-.097656.171875-.164062.242188-.070313.070312-.167969.089843-.234375.164062-.929688.976563-1.773438 2.027344-2.519532 3.148438l-.007812.011719-.03125.050781-.011719.015625-.03125.046875-.011719.019531c-.011718.011719-.019531.027344-.027343.039062l-.039063.058594-.027344.042969-.007812.015625c-.105469.160156-.210938.328125-.3125.492188-2.085938 2.785156-3.378906 8.007812-3.378906 12.078124v46.464844h.1875c-.1875 13.144532-.1875 23.230469-.1875 23.230469-.007813 6.414063 5.1875 11.621094 11.601562 11.628906 6.417969.003907 11.621094-5.191406 11.628906-11.605469 0-.007812 0-.015624 0-.023437l-.003906-23.230469h.003906zm0 0" fill="#18aeac"/><path d="m382.742188 183.882812c-3.09375-.003906-6.0625 1.230469-8.242188 3.429688l-.007812.011719-.277344.277343-.019532.015626-.042968.046874-.027344.023438-.042969.046875-.082031.082031-.023438.019532-.039062.042968-.03125.027344-.035156.039062-.027344.027344-.058594.054688-.035156.03125-.179688.179687-.039062.035157-.023438.023437-.042968.039063-.167969.167968-.050781.046875-.09375.09375-.015625.011719-.046875.042969-.011719.011719c-.050781.050781-.101563.097656-.152344.148437l-.003906.003906c-.074219.070313-.144531.136719-.214844.207031h-.003906c-.144531.140626-.289063.277344-.4375.414063-5.492187 5.085937-11.503906 9.582031-17.9375 13.414063-5.496094 3.3125-7.261719 10.449218-3.949219 15.945312 3.3125 5.492188 10.449219 7.261719 15.945313 3.949219 8.972656-5.335938 17.253906-11.753907 24.660156-19.109375 4.519531-4.554688 4.496094-11.90625-.058594-16.429688-2.175781-2.15625-5.117187-3.371094-8.183593-3.371094zm0 0" fill="#1e2147"/><path d="m209.085938 127.773438c0 6.417968-5.199219 11.617187-11.617188 11.617187-6.414062 0-11.613281-5.199219-11.613281-11.617187 0-6.414063 5.199219-11.613282 11.613281-11.613282 6.417969 0 11.617188 5.199219 11.617188 11.613282zm0 0" fill="#2c2f53"/><path d="m162.621094 127.773438c0 6.417968-5.199219 11.617187-11.613282 11.617187-6.417968 0-11.617187-5.199219-11.617187-11.617187 0-6.414063 5.199219-11.613282 11.617187-11.613282 6.414063 0 11.613282 5.199219 11.613282 11.613282zm0 0" fill="#2c2f53"/><path d="m116.160156 127.773438c0 6.417968-5.203125 11.617187-11.617187 11.617187-6.414063 0-11.617188-5.199219-11.617188-11.617187 0-6.414063 5.203125-11.613282 11.617188-11.613282 6.414062 0 11.617187 5.199219 11.617187 11.613282zm0 0" fill="#2c2f53"/><path d="m185.855469 383.324219c0 6.414062-5.203125 11.617187-11.617188 11.617187-6.414062 0-11.617187-5.203125-11.617187-11.617187 0-6.414063 5.203125-11.617188 11.617187-11.617188 6.414063 0 11.617188 5.203125 11.617188 11.617188zm0 0" fill="#999aac"/><path d="m185.855469 453.019531c0 6.414063-5.203125 11.617188-11.617188 11.617188-6.414062 0-11.617187-5.203125-11.617187-11.617188 0-6.414062 5.203125-11.617187 11.617187-11.617187 6.414063 0 11.617188 5.203125 11.617188 11.617187zm0 0" fill="#999aac"/><path d="m92.925781 453.019531c0 6.414063-5.199219 11.617188-11.613281 11.617188s-11.617188-5.203125-11.617188-11.617188c0-6.414062 5.203126-11.617187 11.617188-11.617187s11.613281 5.203125 11.613281 11.617187zm0 0" fill="#999aac"/><path d="m92.925781 383.324219c0 6.414062-5.199219 11.617187-11.613281 11.617187s-11.617188-5.203125-11.617188-11.617187c0-6.414063 5.203126-11.617188 11.617188-11.617188s11.613281 5.203125 11.613281 11.617188zm0 0" fill="#999aac"/><path d="m92.925781 313.628906c0 6.414063-5.199219 11.617188-11.613281 11.617188s-11.617188-5.203125-11.617188-11.617188c0-6.414062 5.203126-11.617187 11.617188-11.617187s11.613281 5.203125 11.613281 11.617187zm0 0" fill="#999aac"/><path d="m185.855469 313.628906c0 6.414063-5.203125 11.617188-11.617188 11.617188-6.414062 0-11.617187-5.203125-11.617187-11.617188 0-6.414062 5.203125-11.617187 11.617187-11.617187 6.414063 0 11.617188 5.203125 11.617188 11.617187zm0 0" fill="#999aac"/><path d="m278.78125 313.628906c0 6.414063-5.199219 11.617188-11.617188 11.617188-6.414062 0-11.613281-5.203125-11.613281-11.617188 0-6.414062 5.199219-11.617187 11.613281-11.617187 6.417969 0 11.617188 5.203125 11.617188 11.617187zm0 0" fill="#999aac"/><path d="m290.398438 371.707031c6.414062 0 11.613281 5.203125 11.613281 11.617188v46.464843c0 6.414063-5.199219 11.613282-11.613281 11.613282-6.417969 0-11.617188-5.199219-11.617188-11.613282v-46.464843c0-6.414063 5.199219-11.617188 11.617188-11.617188zm0 0" fill="#e80035"/><path d="m69.695312 290.398438c0 6.414062-5.199218 11.613281-11.617187 11.613281-6.414063 0-11.613281-5.199219-11.613281-11.613281 0-6.417969 5.199218-11.617188 11.613281-11.617188 6.417969 0 11.617187 5.199219 11.617187 11.617188zm0 0" fill="#eaeaee"/><path d="m69.695312 360.09375c0 6.414062-5.199218 11.613281-11.617187 11.613281-6.414063 0-11.613281-5.199219-11.613281-11.613281s5.199218-11.617188 11.613281-11.617188c6.417969 0 11.617187 5.203126 11.617187 11.617188zm0 0" fill="#eaeaee"/><path d="m69.695312 429.789062c0 6.414063-5.199218 11.613282-11.617187 11.613282-6.414063 0-11.613281-5.199219-11.613281-11.613282 0-6.417968 5.199218-11.617187 11.613281-11.617187 6.417969 0 11.617187 5.199219 11.617187 11.617187zm0 0" fill="#eaeaee"/><path d="m162.621094 290.398438c0 6.414062-5.199219 11.613281-11.613282 11.613281-6.417968 0-11.617187-5.199219-11.617187-11.613281 0-6.417969 5.199219-11.617188 11.617187-11.617188 6.414063 0 11.613282 5.199219 11.613282 11.617188zm0 0" fill="#eaeaee"/><path d="m255.550781 290.398438c0 6.414062-5.203125 11.613281-11.617187 11.613281-6.414063 0-11.617188-5.199219-11.617188-11.613281 0-6.417969 5.203125-11.617188 11.617188-11.617188 6.414062 0 11.617187 5.199219 11.617187 11.617188zm0 0" fill="#eaeaee"/><path d="m162.621094 360.09375c0 6.414062-5.199219 11.613281-11.613282 11.613281-6.417968 0-11.617187-5.199219-11.617187-11.613281s5.199219-11.617188 11.617187-11.617188c6.414063 0 11.613282 5.203126 11.613282 11.617188zm0 0" fill="#eaeaee"/><path d="m162.621094 429.789062c0 6.414063-5.199219 11.613282-11.613282 11.613282-6.417968 0-11.617187-5.199219-11.617187-11.613282 0-6.417968 5.199219-11.617187 11.617187-11.617187 6.414063 0 11.613282 5.199219 11.613282 11.617187zm0 0" fill="#eaeaee"/><path d="m278.78125 371.707031c0 12.832031-10.402344 23.234375-23.230469 23.234375-12.832031 0-23.234375-10.402344-23.234375-23.234375 0-12.828125 10.402344-23.230469 23.234375-23.230469 12.828125 0 23.230469 10.402344 23.230469 23.230469zm0 0" fill="#fedee1"/></svg>